<?xml version="1.0" encoding="UTF-8" standalone="no"?>
<!-- Created with Inkscape (http://www.inkscape.org/) -->

<svg
   xmlns:dc="http://purl.org/dc/elements/1.1/"
   xmlns:cc="http://creativecommons.org/ns#"
   xmlns:rdf="http://www.w3.org/1999/02/22-rdf-syntax-ns#"
   xmlns:svg="http://www.w3.org/2000/svg"
   xmlns="http://www.w3.org/2000/svg"
   xmlns:sodipodi="http://sodipodi.sourceforge.net/DTD/sodipodi-0.dtd"
   xmlns:inkscape="http://www.inkscape.org/namespaces/inkscape"
   width="234"
   height="102"
   id="svg3424"
   version="1.1"
   inkscape:version="0.48.4 r9939"
   sodipodi:docname="dibujo.svg">
  <defs
     id="defs3426" />
  <sodipodi:namedview
     id="base"
     pagecolor="#ffffff"
     bordercolor="#666666"
     borderopacity="1.0"
     inkscape:pageopacity="1"
     inkscape:pageshadow="2"
     inkscape:zoom="2.4"
     inkscape:cx="102.37996"
     inkscape:cy="11.242348"
     inkscape:current-layer="layer1"
     inkscape:document-units="px"
     showgrid="false"
     inkscape:window-width="1366"
     inkscape:window-height="705"
     inkscape:window-x="-8"
     inkscape:window-y="359"
     inkscape:window-maximized="1" />
  <metadata
     id="metadata3429">
    <rdf:RDF>
      <cc:Work
         rdf:about="">
        <dc:format>image/svg+xml</dc:format>
        <dc:type
           rdf:resource="http://purl.org/dc/dcmitype/StillImage" />
        <dc:title></dc:title>
      </cc:Work>
    </rdf:RDF>
  </metadata>
  <g
     id="layer1"
     inkscape:label="Layer 1"
     inkscape:groupmode="layer"
     transform="translate(0,-498)">
    <path
       inkscape:connector-curvature="0"
       d="M 98.881969,534.49228 C 109.99429,507.06101 89.22416,499.61105 75.65564,499.61105 l -44.8625,0.0334 c 3.73541,2.55636 3.11772,5.95788 2.38315,8.02592 L 7.03885,591.26219 C 5.99961,594.56355 2.08265,598.03393 0,598.58485 l 36.3107,0 c -1.99291,-0.3652 -4.84977,-3.21788 -3.8168,-7.10145 l 9.49713,-30.21927 c 0,0 43.69179,5.90153 56.890939,-26.77184 M 63.59381,507.29057 c 4.75587,0 17.90076,0.62813 9.43661,25.54478 -8.91073,26.11867 -28.63537,20.75553 -28.63537,20.75553 l 14.51176,-46.30031 4.687,0 z"
       style="fill:#000000;fill-opacity:1;fill-rule:evenodd;stroke:none"
       id="path3003" />
    <path
       inkscape:connector-curvature="0"
       d="m 127.95557,598.58484 24.39703,0 c -7.82349,-2.54592 -19.37614,-9.89988 -23.96923,-15.16911 3.73123,-4.07973 8.33059,-9.16323 9.15488,-19.57856 l -12.69622,0 c 0,0 2.47288,1.394 2.47288,4.37189 0,2.76087 -1.11227,6.5401 -3.245,9.24045 -3.71037,-5.49878 -7.69829,-11.77802 -9.0589,-20.99343 4.94994,-2.48749 11.9408,-5.16488 17.51679,-10.0084 5.24,-4.62648 6.45662,-8.95455 6.55053,-11.81558 l 0,-0.35059 c 0,-2.9612 -1.16862,-5.74711 -3.3097,-7.86314 -3.65403,-3.66655 -9.45539,-5.13776 -15.50926,-3.99835 -4.90195,0.91402 -9.05472,3.52255 -11.12902,5.45286 -7.40613,6.89695 -8.35564,18.31395 -8.35564,23.47466 0,1.22705 0.0501,2.20995 0.096,2.76504 -0.41945,0.15025 -1.16653,0.4591 -1.16653,0.4591 -5.37774,1.96579 -19.77472,5.82015 -24.92708,17.65243 -0.64901,1.5046 -1.59225,4.71621 -1.59225,8.52049 0,3.24501 0.70326,6.86565 2.78173,10.17534 3.62481,5.65738 9.80807,9.24046 19.64535,9.05264 10.72208,-0.18572 21.25219,-7.47708 23.14911,-8.8043 1.85518,1.72162 6.66322,6.22498 9.19453,7.41656 m -0.0376,-66.07295 c -1.25836,7.95496 -11.561,16.00175 -14.06936,17.09315 -0.44032,-4.47414 -0.25459,-11.54429 3.50169,-17.31644 2.45619,-3.8335 5.74919,-5.50713 8.40572,-4.58475 2.10978,0.73665 2.3748,2.69826 2.16195,4.80804 m -14.32395,53.23691 c -1.44617,0.88064 -7.10563,3.76463 -12.42911,4.26338 -4.92072,0.45075 -13.13654,-1.45243 -13.11567,-11.31892 0,-8.45789 9.184099,-14.59524 14.13195,-16.76762 2.05761,8.19912 6.59227,17.41036 11.41283,23.82316"
       style="fill:#000000;fill-opacity:1;fill-rule:evenodd;stroke:none"
       id="path3005" />
    <path
       inkscape:connector-curvature="0"
       d="m 202.18591,507.38446 c 14.5222,-3.4829 26.49012,7.89028 27.60031,8.65614 l 4.15278,-13.18454 c -5.77007,-1.71119 -47.43347,-15.82646 -76.8514,17.8152 -18.10944,20.65327 -22.55228,63.05124 0.41528,74.40146 24.5932,12.15157 51.72397,-1.87605 53.6981,-2.85268 l 11.27719,-35.74935 c 1.19575,-4.31972 3.93783,-7.12859 8.773,-8.92325 l -39.02775,0 c 5.71372,2.39776 5.29219,6.68618 4.81222,8.42867 l -11.20832,35.74309 c -1.47747,0.30676 -32.85493,8.09479 -15.28389,-46.77194 3.77924,-11.78637 14.36777,-33.41002 31.64248,-37.5628"
       style="fill:#000000;fill-opacity:1;fill-rule:evenodd;stroke:none"
       id="path3007" />
  </g>
</svg>
